<?xml version="1.0" encoding="utf-8"?>
<!-- Generator: Adobe Illustrator 21.1.0, SVG Export Plug-In . SVG Version: 6.00 Build 0)  -->
<svg version="1.1" id="Layer_1" xmlns="http://www.w3.org/2000/svg" xmlns:xlink="http://www.w3.org/1999/xlink" x="0px" y="0px"
	 width="797.1px" height="329.3px" viewBox="0 0 797.1 329.3" fill="#fff" style="enable-background:new 0 0 797.1 329.3;" xml:space="preserve"
	>
<title>white_Black</title>
<path d="M313,49.8c-29.1,30.5-43.7,71.1-43.7,121.6c0,46.1,13.4,83.4,40.3,112.1s61.6,42.9,104.2,42.9c27.1,0.1,53.9-5.3,78.9-15.7
	V290c-22.8,11.2-48.5,16.7-77.2,16.7c-35.9,0-65.6-12.3-89-36.9s-35.1-58.1-35.1-100.5c0-44.1,12.2-79.4,36.7-105.9
	c24.5-26.5,56.3-39.8,95.4-39.8c23.8-0.1,47.4,5,69.1,14.8V15.6C470.7,7.9,447.5,4,424.1,4.1C379.2,4.1,342.1,19.3,313,49.8z"/>
<polygon points="673,9.3 652.6,9.3 535,321 558.7,321 594.3,224.1 729.5,224.1 765.2,321 789.3,321 "/>
<polygon points="128.9,9.3 11.3,321 35,321 70.6,224.1 205.8,224.1 241.5,321 265.6,321 149.3,9.3 "/>
</svg>
